# xmcd CD database file
#
# Track frame offsets:
#	150
#	25985
#	43920
#	74423
#	98453
#	126168
#	151888
#	173975
#	200580
#	227633
#	247870
#	272373
#	303055
#
# Disc length: 4516 seconds
#
# Revision: 0
# Processed by: cddbd v1.4PL0 Copyright (c) Steve Scherf et al.
# Submitted via: CDex 1.50Beta5
#
DISCID=a211a20d
DTITLE=Sal Nistico - Heavyweights
DYEAR=1962
DGENRE=Jazz
TTITLE0=Mamblue
TTITLE1=Seconds, Anyone?
TTITLE2=My Old Flame
TTITLE3=Shoutin'
TTITLE4=Au Privave
TTITLE5=Heavyweights
TTITLE6=Cheryl
TTITLE7=Ariescene
TTITLE8=By Myself
TTITLE9=Samicotico
TTITLE10=Comin' On Up
TTITLE11=Easy Living
TTITLE12=Down
EXTD=YEAR: 1962
EXTT0=
EXTT1=
EXTT2=
EXTT3=
EXTT4=
EXTT5=
EXTT6=
EXTT7=
EXTT8=
EXTT9=
EXTT10=
EXTT11=
EXTT12=
PLAYORDER=
